<?xml version="1.0" encoding="UTF-8" standalone="no"?>
<!DOCTYPE svg PUBLIC "-//W3C//DTD SVG 1.1//EN" "http://www.w3.org/Graphics/SVG/1.1/DTD/svg11.dtd">
<!-- Generated by Microsoft Visio, SVG Export HDInsight Cluster.svg Page-1 -->
<svg xmlns="http://www.w3.org/2000/svg" xmlns:xlink="http://www.w3.org/1999/xlink" xmlns:ev="http://www.w3.org/2001/xml-events"
		width="8.5in" height="11in" viewBox="0 0 612 792" xml:space="preserve" color-interpolation-filters="sRGB" class="st24">
	<style type="text/css">
	<![CDATA[
		.st1 {marker-end:url(#mrkr5-9);marker-start:url(#mrkr5-7);stroke:#0078d7;stroke-linecap:round;stroke-linejoin:round;stroke-width:3.75}
		.st2 {fill:#0078d7;fill-opacity:1;stroke:#0078d7;stroke-opacity:1;stroke-width:0.59808612440191}
		.st3 {marker-end:url(#mrkr5-18);marker-start:url(#mrkr5-16);stroke:#ffd965;stroke-linecap:round;stroke-linejoin:round;stroke-width:3.75}
		.st4 {fill:#ffd965;fill-opacity:1;stroke:#ffd965;stroke-opacity:1;stroke-width:0.59808612440191}
		.st5 {marker-end:url(#mrkr5-27);marker-start:url(#mrkr5-25);stroke:#002060;stroke-linecap:round;stroke-linejoin:round;stroke-width:3.75}
		.st6 {fill:#002060;fill-opacity:1;stroke:#002060;stroke-opacity:1;stroke-width:0.59808612440191}
		.st7 {stroke:#0078d7;stroke-dasharray:0,3.5855;stroke-linecap:round;stroke-linejoin:round;stroke-width:1.19517}
		.st8 {fill:#0078d7}
		.st9 {fill:#0078d7;font-family:Calibri;font-size:2.22526em}
		.st10 {fill:#0078d7;stroke:none;stroke-linecap:butt;stroke-width:0.75}
		.st11 {fill:#0078d7;font-family:Segoe UI;font-size:0.833336em}
		.st12 {fill:none;stroke:#0078d7;stroke-dasharray:0.75,1.5;stroke-linecap:round;stroke-linejoin:round;stroke-width:0.75}
		.st13 {fill:#ffffff}
		.st14 {stroke:#ffffff;stroke-linecap:butt;stroke-width:0.6375}
		.st15 {fill:#0078d7;stroke:none;stroke-linecap:butt;stroke-width:0.6375}
		.st16 {fill:#ffffff;stroke:#ffffff;stroke-linecap:butt;stroke-width:1.5}
		.st17 {fill:#0078d7;font-family:Segoe UI;font-size:0.75em}
		.st18 {fill:#002060;stroke:none;stroke-linecap:butt;stroke-width:0.75}
		.st19 {fill:#002060;font-family:Segoe UI;font-size:0.833336em}
		.st20 {fill:#ffd965;stroke:none;stroke-linecap:butt;stroke-width:1.05281}
		.st21 {fill:none;stroke:none;stroke-linecap:round;stroke-linejoin:round;stroke-width:0.75}
		.st22 {fill:#ffd965;font-family:Segoe UI;font-size:0.833336em}
		.st23 {font-size:1em}
		.st24 {fill:none;fill-rule:evenodd;font-size:12px;overflow:visible;stroke-linecap:square;stroke-miterlimit:3}
	]]>
	</style>

	<defs id="Markers">
		<g id="lend5">
			<path d="M 2 1 L 0 0 L 1.98117 -0.993387 C 1.67173 -0.364515 1.67301 0.372641 1.98465 1.00043 " style="stroke:none"/>
		</g>
		<marker id="mrkr5-7" class="st2" refX="2.83" orient="auto" markerUnits="strokeWidth" overflow="visible">
			<use xlink:href="#lend5" transform="scale(1.672) "/>
		</marker>
		<marker id="mrkr5-9" class="st2" refX="-2.926" orient="auto" markerUnits="strokeWidth" overflow="visible">
			<use xlink:href="#lend5" transform="scale(-1.672,-1.672) "/>
		</marker>
		<marker id="mrkr5-16" class="st4" refX="2.83" orient="auto" markerUnits="strokeWidth" overflow="visible">
			<use xlink:href="#lend5" transform="scale(1.672) "/>
		</marker>
		<marker id="mrkr5-18" class="st4" refX="-2.926" orient="auto" markerUnits="strokeWidth" overflow="visible">
			<use xlink:href="#lend5" transform="scale(-1.672,-1.672) "/>
		</marker>
		<marker id="mrkr5-25" class="st6" refX="2.83" orient="auto" markerUnits="strokeWidth" overflow="visible">
			<use xlink:href="#lend5" transform="scale(1.672) "/>
		</marker>
		<marker id="mrkr5-27" class="st6" refX="-2.926" orient="auto" markerUnits="strokeWidth" overflow="visible">
			<use xlink:href="#lend5" transform="scale(-1.672,-1.672) "/>
		</marker>
	</defs>
	<g>
		<title>Page-1</title>
		<g id="shape64-1" transform="translate(389.774,-662.05)">
			<title>Arrow (Azure Poster style).64</title>
			<path d="M9 802.61 L9 802.97 L9 867.08" class="st1"/>
		</g>
		<g id="shape63-10" transform="translate(124.775,-664.25)">
			<title>Arrow (Azure Poster style).63</title>
			<path d="M9 802.61 L9 802.97 L9 867.08" class="st3"/>
		</g>
		<g id="shape62-19" transform="translate(184.356,-235.363)">
			<title>Arrow (Azure Poster style).62</title>
			<path d="M10.61 792 L10.97 792 L18.07 792 A18.0722 18.0722 -180 0 0 36.14 773.93 L36.14 679.41 A24.75 24.75 0 0 1 60.89
						 654.66 L74.67 654.66" class="st5"/>
		</g>
		<g id="group1-28" transform="translate(36,-48.375)">
			<title>Smart Virtual Network Box</title>
			<g id="shape2-29" transform="translate(6.39488E-14,-27.1591)">
				<title>Virtual Network Box 1</title>
				<path d="M482.27 792 L0 792 L0 246.53 L521.37 246.53 L521.37 765.8" class="st7"/>
			</g>
			<g id="shape3-32" transform="translate(481.135,-9.10672)">
				<title>Sheet.3</title>
				<desc>Virtual Network</desc>
				<path d="M0 773.95 L18.05 792 L20.25 789.64 L4.56 773.95 L20.25 758.26 L18.05 755.9 L0 773.95 ZM66.64 773.95 L48.59
							 755.9 L46.4 758.26 L62.09 773.95 L46.4 789.64 L48.59 792 L66.64 773.95 ZM49.6 773.95 A4.04925 4.04912
							 -180 1 0 41.5 773.95 A4.04925 4.04912 -180 1 0 49.6 773.95 ZM21.26 778 C23.45 778 25.31 776.14 25.31
							 773.95 C25.31 771.59 23.45 769.9 21.26 769.9 C19.07 769.9 17.21 771.75 17.21 773.95 C17.21 776.14 18.9
							 778 21.26 778 ZM37.46 773.95 A4.04924 4.04914 -180 1 0 29.36 773.95 A4.04924 4.04914 -180 1 0 37.46
							 773.95 Z" class="st8"/>
				<text x="-107.34" y="822.38" class="st9">Virtual Network</text>			</g>
		</g>
		<g id="group4-36" transform="translate(72,-446.319)">
			<title>Azure SQL database</title>
			<desc>Azure SQL Database</desc>
			<g id="shape5-37" transform="translate(39.1699,-62.4674)">
				<title>Sheet.5</title>
				<path d="M1.28 790.62 C1.66 791.1 2.11 791.45 2.62 791.65 C3.14 791.9 3.69 792 4.28 792 C4.83 792 5.35 791.9 5.83
							 791.65 C6.35 791.45 6.79 791.07 7.17 790.58 C7.59 790.14 7.9 789.52 8.14 788.76 C8.34 788.03 8.48 787.17
							 8.48 786.14 C8.48 785.31 8.41 784.52 8.24 783.79 C8.07 783.04 7.83 782.38 7.48 781.83 C7.17 781.28 6.72
							 780.83 6.21 780.48 C5.72 780.17 5.1 780 4.38 780 C3.62 780 2.93 780.17 2.38 780.48 C1.83 780.83 1.38
							 781.24 1 781.79 C0.66 782.35 0.41 782.97 0.24 783.73 C0.07 784.45 0 785.21 0 786.04 C-0 787.11 0.1 788
							 0.35 788.76 C0.59 789.52 0.9 790.14 1.28 790.62 Z" class="st10"/>
			</g>
			<g id="shape6-39" transform="translate(6.15508E-13,-15.2496)">
				<title>Sheet.6</title>
				<path d="M57.73 766.89 C58.72 766.89 59.71 766.96 60.69 767.09 C65.46 757.49 75.12 751.21 85.99 750.77 L85.99 695.01
							 C85.99 686.08 66.72 677.57 42.96 677.57 C19.24 677.57 0 685.67 0 694.57 L0 774.97 C0 783.02 15.78 790.63
							 36.36 792 C36.18 790.88 36.06 789.73 36.06 788.56 C36.07 776.61 45.78 766.89 57.73 766.89 ZM73.16 750.32
							 L58.27 750.32 L58.27 727.25 L65.23 727.25 L65.23 744.87 L73.16 744.87 L73.16 750.32 L73.16 750.32 ZM42.93
							 683.74 C59.85 683.74 73.58 687.91 73.58 693.12 C73.58 698.33 59.86 702.5 42.93 702.5 C26.03 702.5 12.31
							 698.33 12.31 693.12 C12.31 687.91 26.03 683.74 42.93 683.74 ZM30.07 744.98 C29.96 745.56 29.76 746.11
							 29.45 746.67 C29.17 747.22 28.76 747.73 28.28 748.22 C27.79 748.7 27.17 749.15 26.41 749.53 C25.69 749.91
							 24.79 750.18 23.8 750.39 C22.76 750.63 21.59 750.74 20.24 750.74 C19.52 750.74 18.83 750.7 18.18 750.6
							 C17.52 750.53 16.93 750.46 16.35 750.32 C15.8 750.22 15.28 750.08 14.83 749.94 C14.35 749.81 13.97 749.63
							 13.63 749.49 L13.63 743.19 C14 743.46 14.45 743.77 14.97 744.05 C15.45 744.32 16 744.56 16.55 744.8
							 C17.11 745.01 17.69 745.18 18.31 745.32 C18.9 745.49 19.48 745.56 20.07 745.56 C20.55 745.56 20.97 745.49
							 21.28 745.39 C21.59 745.32 21.83 745.18 22 745.01 C22.17 744.87 22.31 744.7 22.38 744.53 C22.45 744.32
							 22.48 744.15 22.48 743.94 C22.48 743.6 22.38 743.29 22.21 743.01 C22.03 742.77 21.79 742.53 21.48 742.32
							 C21.14 742.12 20.76 741.91 20.34 741.74 C19.9 741.53 19.38 741.36 18.86 741.15 C17.86 740.77 17 740.32
							 16.27 739.81 C15.59 739.29 15 738.77 14.55 738.19 C14.1 737.6 13.79 736.95 13.58 736.29 C13.38 735.63
							 13.27 734.95 13.27 734.22 C13.27 733.08 13.52 732.08 13.96 731.15 C14.41 730.26 15.06 729.5 15.86 728.84
							 C16.69 728.22 17.68 727.71 18.82 727.4 C19.96 727.05 21.24 726.88 22.65 726.88 C23.44 726.88 24.13 726.91
							 24.78 726.95 C25.44 727.01 26.03 727.08 26.54 727.19 C27.06 727.26 27.51 727.36 27.92 727.46 C28.34
							 727.57 28.71 727.67 29.02 727.77 L29.02 733.64 C28.68 733.46 28.34 733.26 27.89 733.08 C27.47 732.88
							 27.03 732.71 26.54 732.57 C26.06 732.4 25.54 732.29 24.99 732.19 C24.44 732.09 23.89 732.05 23.3 732.05
							 C22.54 732.05 21.92 732.19 21.44 732.47 C20.96 732.78 20.71 733.16 20.71 733.67 C20.71 733.92 20.78
							 734.16 20.89 734.36 C20.99 734.57 21.16 734.74 21.37 734.91 C21.61 735.09 21.92 735.29 22.3 735.46 C22.68
							 735.67 23.13 735.88 23.68 736.08 C24.64 736.46 25.51 736.88 26.33 737.32 C27.13 737.77 27.82 738.29
							 28.4 738.88 C28.99 739.43 29.44 740.08 29.75 740.81 C30.09 741.53 30.26 742.39 30.26 743.36 C30.27 743.87
							 30.2 744.42 30.07 744.98 ZM32.62 743.8 C32.07 742.42 31.79 740.84 31.79 739.11 C31.79 737.29 32.07 735.63
							 32.65 734.15 C33.24 732.63 34.03 731.36 35.1 730.29 C36.13 729.18 37.38 728.36 38.82 727.77 C40.27 727.18
							 41.89 726.87 43.62 726.87 C45.27 726.87 46.79 727.15 48.2 727.7 C49.58 728.25 50.79 729.04 51.79 730.08
							 C52.79 731.08 53.58 732.32 54.16 733.81 C54.71 735.25 54.99 736.91 54.99 738.74 C54.99 740.05 54.85
							 741.29 54.51 742.43 C54.2 743.56 53.75 744.6 53.17 745.49 C52.61 746.42 51.92 747.22 51.17 747.91 C50.37
							 748.6 49.54 749.15 48.62 749.56 L56.37 756.18 L47.55 756.18 L42.48 750.74 C41 750.63 39.62 750.29 38.34
							 749.73 C37.03 749.15 35.89 748.39 34.93 747.39 C33.96 746.39 33.2 745.22 32.62 743.8 Z" class="st10"/>
			</g>
			<g id="shape7-41" transform="translate(39.0448,0)">
				<title>Sheet.7</title>
				<path d="M84.5 781.07 C84.5 775.3 80 770.55 74.32 770.17 C74.65 768.49 74.81 766.77 74.81 765.06 C74.81 750.37 62.86
							 738.41 48.17 738.41 C37.18 738.41 27.4 745.11 23.39 755.23 C21.84 754.83 20.26 754.62 18.69 754.62 C8.38
							 754.62 0 763.01 0 773.31 C0 783.45 8.12 791.73 18.38 791.99 L74.35 792 L76.45 792 L76.34 792 C81.04
							 790.76 84.5 786.08 84.5 781.07 ZM74.22 788.98 L18.69 789.02 C10.03 789.02 2.98 781.97 2.98 773.31 C2.98
							 764.65 10.03 757.6 18.69 757.6 C20.41 757.6 22.14 757.9 23.82 758.48 L25.24 758.97 L25.72 757.54 C28.96
							 747.88 37.98 741.39 48.17 741.39 C61.22 741.39 71.84 752.01 71.84 765.06 C71.84 767.17 71.55 769.27
							 70.99 771.32 L70.41 773.46 L72.61 773.19 C72.93 773.15 73.25 773.13 73.58 773.13 C77.97 773.13 81.53
							 776.69 81.53 781.08 C81.53 785.18 78.32 788.66 74.22 788.98 Z" class="st10"/>
			</g>
			<g id="shape4-43">
				<text x="17.08" y="817.48" class="st11">Azure SQL Database </text>			</g>
		</g>
		<g id="shape8-45" transform="translate(270,-135)">
			<title>Affinity group</title>
			<path d="M0 792 L261 792 L261 351 L0 351 L0 792 Z" class="st12"/>
		</g>
		<g id="group9-47" transform="translate(510.814,-121.5)">
			<title>HDInsight (opaque)</title>
			<desc>HDInsight</desc>
			<g id="shape10-48" transform="translate(0,-0.06375)">
				<title>Sheet.10</title>
				<path d="M25.18 778.04 C25.18 778.04 27.48 781.35 32.13 781.23 C34.94 781.16 38.19 777.78 37.93 771.66 C37.74 766.63
							 36.34 765.29 35.95 765.29 C35.44 765.35 35.25 766.18 34.68 766.56 C33.91 767.14 33.4 767.01 32.96 767.46
							 C32.51 767.9 33.4 769.05 33.28 772.05 C33.15 774.79 31.36 775.81 31.36 775.81 C31.36 775.81 32.19 774.6
							 32.32 773.77 C32.45 773.13 32.07 773 31.81 772.81 C31.3 772.36 30.28 773.51 30.03 773.77 C30.47 773.26
							 31.17 772.68 30.92 772.17 C30.41 771.34 29.32 771.92 29.07 771.98 C29.32 771.85 29.84 771.66 29.71 771.15
							 C29.52 770.26 28.62 770.45 28.5 770.52 C28.88 770.32 29.07 770.13 30.09 770.2 C30.66 770.2 30.54 769.62
							 30.15 769.18 C29.58 768.48 29.2 768.22 28.75 768.09 C28.24 767.9 27.22 768.03 27.22 768.03 C27.22 768.03
							 27.92 767.58 28.31 767.65 C27.79 766.95 26.14 764.4 23.27 764.27 C18.04 764.01 16.51 767.39 16.51 767.39
							 L19.06 767.26 C19.06 767.26 18.3 767.58 16.77 767.84 C15.55 768.03 15.62 768.03 15.24 768.09 C14.66
							 768.22 12.11 769.88 10.71 771.34 C9.31 772.81 7.78 775.62 7.78 776.38 C7.78 777.15 8.22 778.29 8.67
							 778.93 C9.12 779.57 10.84 778.68 10.84 778.68 L8.35 781.48 L10.39 783.01 C10.39 783.01 12.18 784.09
							 13.26 783.97 C14.09 783.84 16.57 782.5 17.72 782.25 C18.93 781.99 19.89 780.27 19.89 780.27 C19.89 780.27
							 20.21 777.72 19.89 776.19 C19.19 773.45 18.49 772.36 19 771.41 C18.55 775.04 19.76 775.3 19.7 777.66
							 C19.64 779.44 19.06 781.35 19.06 781.35 C19.06 781.35 17.34 780.78 16 781.48 C14.66 782.18 13.52 783.14
							 12.24 783.14 C10.9 783.14 9.12 780.84 9.12 780.84 L10.07 779.44 C10.07 779.44 9.95 778.99 9.56 778.55
							 C8.99 777.85 8.03 776.83 7.97 776 C7.9 774.6 9.31 773.07 9.82 772.49 C10.33 771.85 13.26 769.88 13.26
							 769.88 C13.26 769.88 7.4 770.83 5.61 773 C3.38 775.68 3.06 776.44 2.23 776.57 C1.4 776.7 1.08 775.81
							 1.08 775.81 C1.08 775.81 1.72 775.74 1.66 774.98 C1.53 773.77 1.85 773.07 1.85 773.07 C1.85 773.07 0.51
							 773.9 0.25 774.72 C0 775.55 0.57 775.81 0.57 775.81 C0.57 775.81 0.57 777.34 1.47 777.66 C2.36 778.04
							 3.06 777.72 3.06 777.72 C3.06 777.72 2.55 780.27 3.19 782.31 C2.68 782.88 1.53 784.22 1.15 784.86 C0.57
							 785.62 0.96 786.13 0.96 786.13 C0.96 786.13 2.55 788.75 3.89 788.37 C4.21 788.3 5.04 787.35 5.55 786.77
							 C5.61 786.84 5.61 786.84 5.61 786.84 C5.61 786.84 5.48 788.37 5.29 788.75 C5.1 789.13 4.59 790.02 5.48
							 790.66 C6.37 791.3 8.61 791.55 9.12 791.23 C9.63 790.92 9.5 790.02 9.56 789.7 C9.63 789.39 10.33 788.11
							 10.45 787.79 C10.52 787.41 10.52 785.5 10.39 784.86 C10.52 785.18 11.09 786.64 13.2 786.71 C15.11 786.77
							 15.75 785.75 15.75 785.05 C15.75 785.37 15.87 786.77 15.68 787.03 C15.49 787.28 14.92 787.47 14.34 787.79
							 C13.77 788.17 13 788.56 14.28 790.09 C15.68 791.87 15.94 792 17.15 791.04 C17.98 790.41 18.81 789.77
							 19.57 789.07 C19.57 789.07 19.57 789.07 19.57 789.07 C19.57 789.07 20.02 790.6 20.59 790.6 C20.78 790.6
							 23.2 790.6 23.59 790.6 C24.03 790.6 24.35 790.21 24.35 789.77 C24.35 789.32 23.97 788.81 23.97 788.81
							 C23.97 788.81 24.1 787.22 23.91 786.64 C23.78 786.26 22.89 784.8 22.44 784.09 C22.76 783.27 23.01 782.69
							 23.01 782.69 C23.01 782.69 22.06 782.05 21.42 781.23 C20.97 780.59 20.85 780.21 20.85 780.21 C20.85
							 780.21 22.12 781.48 23.46 781.8 C23.97 782.37 24.8 783.2 25.5 783.46 C28.11 784.54 29.26 780.65 29.26
							 780.65 L25.18 778.04 Z" class="st13"/>
				<path d="M25.18 778.04 C25.18 778.04 27.48 781.35 32.13 781.23 C34.94 781.16 38.19 777.78 37.93 771.66 C37.74 766.63
							 36.34 765.29 35.95 765.29 C35.44 765.35 35.25 766.18 34.68 766.56 C33.91 767.14 33.4 767.01 32.96 767.46
							 C32.51 767.9 33.4 769.05 33.28 772.05 C33.15 774.79 31.36 775.81 31.36 775.81 C31.36 775.81 32.19 774.6
							 32.32 773.77 C32.45 773.13 32.07 773 31.81 772.81 C31.3 772.36 30.28 773.51 30.03 773.77 C30.47 773.26
							 31.17 772.68 30.92 772.17 C30.41 771.34 29.32 771.92 29.07 771.98 C29.32 771.85 29.84 771.66 29.71 771.15
							 C29.52 770.26 28.62 770.45 28.5 770.52 C28.88 770.32 29.07 770.13 30.09 770.2 C30.66 770.2 30.54 769.62
							 30.15 769.18 C29.58 768.48 29.2 768.22 28.75 768.09 C28.24 767.9 27.22 768.03 27.22 768.03 C27.22 768.03
							 27.92 767.58 28.31 767.65 C27.79 766.95 26.14 764.4 23.27 764.27 C18.04 764.01 16.51 767.39 16.51 767.39
							 L19.06 767.26 C19.06 767.26 18.3 767.58 16.77 767.84 C15.55 768.03 15.62 768.03 15.24 768.09 C14.66
							 768.22 12.11 769.88 10.71 771.34 C9.31 772.81 7.78 775.62 7.78 776.38 C7.78 777.15 8.22 778.29 8.67
							 778.93 C9.12 779.57 10.84 778.68 10.84 778.68 L8.35 781.48 L10.39 783.01 C10.39 783.01 12.18 784.09
							 13.26 783.97 C14.09 783.84 16.57 782.5 17.72 782.25 C18.93 781.99 19.89 780.27 19.89 780.27 C19.89 780.27
							 20.21 777.72 19.89 776.19 C19.19 773.45 18.49 772.36 19 771.41 C18.55 775.04 19.76 775.3 19.7 777.66
							 C19.64 779.44 19.06 781.35 19.06 781.35 C19.06 781.35 17.34 780.78 16 781.48 C14.66 782.18 13.52 783.14
							 12.24 783.14 C10.9 783.14 9.12 780.84 9.12 780.84 L10.07 779.44 C10.07 779.44 9.95 778.99 9.56 778.55
							 C8.99 777.85 8.03 776.83 7.97 776 C7.9 774.6 9.31 773.07 9.82 772.49 C10.33 771.85 13.26 769.88 13.26
							 769.88 C13.26 769.88 7.4 770.83 5.61 773 C3.38 775.68 3.06 776.44 2.23 776.57 C1.4 776.7 1.08 775.81
							 1.08 775.81 C1.08 775.81 1.72 775.74 1.66 774.98 C1.53 773.77 1.85 773.07 1.85 773.07 C1.85 773.07 0.51
							 773.9 0.25 774.72 C0 775.55 0.57 775.81 0.57 775.81 C0.57 775.81 0.57 777.34 1.47 777.66 C2.36 778.04
							 3.06 777.72 3.06 777.72 C3.06 777.72 2.55 780.27 3.19 782.31 C2.68 782.88 1.53 784.22 1.15 784.86 C0.57
							 785.62 0.96 786.13 0.96 786.13 C0.96 786.13 2.55 788.75 3.89 788.37 C4.21 788.3 5.04 787.35 5.55 786.77
							 C5.61 786.84 5.61 786.84 5.61 786.84 C5.61 786.84 5.48 788.37 5.29 788.75 C5.1 789.13 4.59 790.02 5.48
							 790.66 C6.37 791.3 8.61 791.55 9.12 791.23 C9.63 790.92 9.5 790.02 9.56 789.7 C9.63 789.39 10.33 788.11
							 10.45 787.79 C10.52 787.41 10.52 785.5 10.39 784.86 C10.52 785.18 11.09 786.64 13.2 786.71 C15.11 786.77
							 15.75 785.75 15.75 785.05 C15.75 785.37 15.87 786.77 15.68 787.03 C15.49 787.28 14.92 787.47 14.34 787.79
							 C13.77 788.17 13 788.56 14.28 790.09 C15.68 791.87 15.94 792 17.15 791.04 C17.98 790.41 18.81 789.77
							 19.57 789.07 C19.57 789.07 19.57 789.07 19.57 789.07 C19.57 789.07 20.02 790.6 20.59 790.6 C20.78 790.6
							 23.2 790.6 23.59 790.6 C24.03 790.6 24.35 790.21 24.35 789.77 C24.35 789.32 23.97 788.81 23.97 788.81
							 C23.97 788.81 24.1 787.22 23.91 786.64 C23.78 786.26 22.89 784.8 22.44 784.09 C22.76 783.27 23.01 782.69
							 23.01 782.69 C23.01 782.69 22.06 782.05 21.42 781.23 C20.97 780.59 20.85 780.21 20.85 780.21 C20.85
							 780.21 22.12 781.48 23.46 781.8 C23.97 782.37 24.8 783.2 25.5 783.46 C28.11 784.54 29.26 780.65 29.26
							 780.65" class="st14"/>
			</g>
			<g id="group11-51">
				<title>Sheet.11</title>
				<g id="shape12-52" transform="translate(20.0175,-1.275)">
					<title>Sheet.12</title>
					<path d="M3.89 788.05 C3.7 787.47 3.06 786.39 3.06 786.39 C3.06 786.39 2.93 787.98 1.85 789.58 C0.76 791.17 0.06
								 791.43 0.06 791.43 C0.06 791.43 -0 791.94 0.57 792 C0.76 792 3.19 792 3.57 792 C4.02 792 4.33 791.62
								 4.33 791.17 C4.33 790.72 3.95 790.21 3.95 790.21 C3.95 790.21 4.08 788.62 3.89 788.05 Z"
							class="st15"/>
				</g>
				<g id="shape13-54" transform="translate(0.51,-3.25125)">
					<title>Sheet.13</title>
					<path d="M2.04 786.33 C2.04 786.33 2.04 786.33 2.04 786.33 C2.04 786.33 1.15 787.35 0.57 788.11 C-0 788.88 0.38
								 789.39 0.38 789.39 C0.38 789.39 1.98 792 3.32 791.62 C3.76 791.49 4.14 790.79 4.14 790.79 C4.14
								 790.79 3.57 790.02 3.12 789.07 C2.55 788.05 2.1 786.58 2.04 786.33 Z" class="st15"/>
				</g>
				<g id="shape14-56">
					<title>Sheet.14</title>
					<path d="M37.93 771.6 C37.74 766.56 36.34 765.22 35.95 765.22 C35.44 765.29 35.25 766.12 34.68 766.5 C33.91 767.07
								 33.4 766.95 32.96 767.39 C32.51 767.84 33.4 768.99 33.28 771.98 C33.15 774.72 31.36 775.74 31.36
								 775.74 C31.36 775.74 32.19 774.53 32.32 773.7 C32.45 773.07 32.07 772.94 31.81 772.75 C31.3 772.3
								 30.28 773.45 30.03 773.7 C30.47 773.19 31.17 772.62 30.92 772.11 C30.41 771.28 29.32 771.85 29.07
								 771.92 C29.32 771.79 29.84 771.6 29.71 771.09 C29.52 770.2 28.62 770.39 28.5 770.45 C28.88 770.26
								 29.07 770.07 30.09 770.13 C30.66 770.13 30.54 769.56 30.15 769.11 C29.58 768.41 29.2 768.16 28.75
								 768.03 C28.3 767.9 27.22 767.97 27.22 767.97 C27.22 767.97 27.92 767.52 28.3 767.58 C27.79 766.88
								 26.14 764.33 23.27 764.2 C18.04 763.95 16.51 767.33 16.51 767.33 L19.06 767.2 C19.06 767.2 18.3
								 767.52 16.77 767.77 C15.55 767.97 15.62 767.97 15.24 768.03 C14.66 768.16 13.2 769.94 11.86 771.47
								 C10.45 772.94 9.12 774.91 9.12 775.68 C9.12 776.44 9.88 776.95 10.33 777.59 C10.77 778.23 10.9 778.55
								 10.9 778.55 L12.75 776.38 L10.58 780.84 C10.58 780.84 11.6 782.18 12.69 782.05 C13.52 781.93 15.36
								 780.46 16.51 780.27 C17.72 780.01 18.23 780.21 18.23 780.21 C18.23 780.21 19.06 778.04 18.68 776.51
								 C17.98 773.77 18.49 772.3 19.06 771.41 C18.62 775.04 19.83 775.3 19.76 777.66 C19.7 779.44 19.12
								 781.35 19.12 781.35 C19.12 781.35 17.4 780.78 16.07 781.48 C14.73 782.18 13.58 783.14 12.3 783.14
								 C10.97 783.14 9.18 780.84 9.18 780.84 L10.14 779.44 C10.14 779.44 10.01 778.99 9.63 778.55 C9.05
								 777.85 8.1 776.83 8.03 776 C7.97 774.6 9.37 773.07 9.88 772.49 C10.39 771.92 11.92 770.2 11.92 770.2
								 C11.92 770.2 7.46 770.83 5.61 773 C3.38 775.68 3.06 776.44 2.23 776.57 C1.4 776.7 1.08 775.81 1.08
								 775.81 C1.08 775.81 1.72 775.74 1.66 774.98 C1.53 773.77 1.85 773.07 1.85 773.07 C1.85 773.07 0.51
								 773.9 0.25 774.72 C0 775.55 0.57 775.81 0.57 775.81 C0.57 775.81 0.57 777.34 1.47 777.66 C2.36 778.04
								 3.06 777.72 3.06 777.72 C3.06 777.72 2.49 780.52 3.25 782.56 C4.02 784.6 5.55 786.84 5.55 786.84
								 C5.55 786.84 5.42 788.37 5.23 788.75 C5.1 789.13 4.53 790.02 5.42 790.66 C6.31 791.3 8.54 791.55
								 9.05 791.23 C9.56 790.92 9.44 790.02 9.5 789.7 C9.56 789.39 10.26 788.11 10.39 787.79 C10.45 787.41
								 10.45 785.5 10.33 784.86 C10.45 785.18 11.03 786.64 13.13 786.71 C15.04 786.77 15.68 785.75 15.68
								 785.05 C15.68 785.37 15.81 786.77 15.62 787.03 C15.43 787.28 14.85 787.47 14.28 787.79 C13.71 788.17
								 12.94 788.56 14.22 790.09 C15.62 791.87 15.87 792 17.08 791.04 C18.3 790.09 19.57 789.19 20.46 788.05
								 C21.36 786.9 22.95 782.69 22.95 782.69 C22.95 782.69 21.99 782.05 21.36 781.23 C20.91 780.59 20.78
								 780.21 20.78 780.21 C20.78 780.21 22.06 781.48 23.4 781.8 C23.91 782.37 24.73 783.2 25.44 783.46
								 C28.05 784.54 28.88 781.29 28.88 781.29 L28.5 781.23 C28.5 781.23 27.79 782.88 26.65 782.76 C24.35
								 782.5 25.05 777.78 25.05 777.78 C25.05 777.78 27.35 781.1 32 780.97 C34.93 781.1 38.19 777.72 37.93
								 771.6 ZM21.74 771.41 C21.74 771.41 21.93 769.24 22.38 768.92 C22.95 768.54 24.48 769.05 24.48 769.05
								 C24.48 769.05 23.52 769.05 22.95 769.56 C22.44 770.01 21.74 771.41 21.74 771.41 ZM25.5 773.32 C24.8
								 773.89 24.16 774.6 24.16 774.6 C24.16 774.6 24.29 774.28 24.42 774.09 C24.54 773.83 24.73 773.58
								 24.73 773.58 C24.73 773.58 24.48 773.51 24.16 773.19 C23.97 773 23.91 772.81 23.84 772.68 C23.84
								 772.68 23.72 772.75 23.52 772.94 C23.33 773.07 23.08 773.38 23.08 773.38 C23.08 773.38 23.72 772.17
								 24.61 771.54 C25.56 770.9 26.52 770.9 26.52 770.9 C26.52 770.9 26.39 770.9 26.07 771.09 C25.75 771.28
								 25.75 771.28 25.75 771.28 C25.75 771.28 26.07 771.41 26.33 771.66 C26.58 771.98 26.65 772.36 26.65
								 772.36 C26.65 772.36 26.71 772.36 27.03 772.24 C27.35 772.11 27.67 772.11 27.67 772.11 C27.67 772.11
								 26.46 772.56 25.5 773.32 ZM35.13 767.65 C34.36 768.22 33.53 768.28 33.47 768.03 C33.34 767.77 33.53
								 767.77 33.53 767.77 C33.53 767.77 34.36 767.46 34.81 767.14 C35.38 766.69 35.89 765.67 36.08 765.93
								 C36.21 766.18 35.7 767.2 35.13 767.65 Z" class="st15"/>
				</g>
			</g>
			<g id="shape9-58">
				<text x="-2.89" y="803.28" class="st11">HDInsight</text>			</g>
		</g>
		<g id="shape15-60" transform="translate(289,-360)">
			<title>Affinity group.15</title>
			<desc>HDFS Nodes</desc>
			<path d="M0 792 L215 792 L215 675 L0 675 L0 792 Z" class="st12"/>
			<text x="79.63" y="688" class="st11">HDFS Nodes</text>		</g>
		<g id="group16-63" transform="translate(488.094,-349.844)">
			<title>Autoscaling (opaque)</title>
			<desc>Autoscaling</desc>
			<g id="shape17-64" transform="translate(0,-0.00975)">
				<title>Sheet.17</title>
				<path d="M15.95 774.4 C9.64 774.4 3.97 773.36 0 771.7 L0 792 C3.96 790.34 9.64 789.3 15.95 789.3 C22.26 789.3 27.94
							 790.34 31.9 792 L31.9 771.7 C27.94 773.36 22.26 774.4 15.95 774.4 Z" class="st16"/>
			</g>
			<g id="group18-66" transform="translate(0.09075,0)">
				<title>Sheet.18</title>
				<g id="shape19-67" transform="translate(14.1323,-8.31)">
					<title>Sheet.19</title>
					<path d="M1.84 788.34 C0.83 788.34 0 789.15 0 790.16 C0 791.17 0.82 792 1.84 792 C2.84 792 3.65 791.17 3.65 790.16
								 C3.65 789.15 2.84 788.34 1.84 788.34 Z" class="st10"/>
				</g>
				<g id="shape20-69">
					<title>Sheet.20</title>
					<path d="M15.95 774.4 C9.64 774.4 3.96 773.36 0 771.7 L0 792 C3.96 790.34 9.64 789.3 15.95 789.3 C22.26 789.3
								 27.94 790.34 31.9 792 L31.9 771.7 C27.94 773.36 22.26 774.4 15.95 774.4 ZM21.68 782.48 L20.11 783.05
								 L19.74 783.96 L20.4 785.26 L20.48 785.43 L19.56 786.35 L18.04 785.64 L17.15 786.01 L16.69 787.41
								 L16.64 787.59 L15.33 787.59 L14.76 786.01 L13.86 785.64 L12.56 786.31 L12.38 786.4 L11.45 785.47
								 L12.17 783.95 L11.79 783.05 L10.41 782.59 L10.22 782.53 L10.22 781.24 L11.8 780.66 L12.18 779.77
								 L11.51 778.46 L11.42 778.29 L12.34 777.36 L13.86 778.08 L14.77 777.7 L15.22 776.31 L15.28 776.12
								 L16.58 776.12 L17.14 777.7 L18.05 778.08 L19.35 777.41 L19.53 777.32 L20.03 777.83 C20.15 778.02
								 20.26 778.21 20.38 778.39 L19.74 779.77 L20.11 780.66 L21.49 781.12 L21.69 781.18 L21.69 782.48
								 L21.68 782.48 Z" class="st10"/>
				</g>
			</g>
			<g id="shape16-71">
				<text x="-10.1" y="803.52" class="st11">Autoscaling</text>			</g>
		</g>
		<g id="group22-73" transform="translate(375.75,-507.477)">
			<title>Virtual Machine symbol only</title>
			<desc>Ambari Server</desc>
			<g id="shape23-74">
				<title>Sheet.23</title>
				<path d="M42.28 750.48 L2.45 750.48 C1.08 750.48 0 751.69 0 753.03 L0 780.81 C0 782.15 1.08 783.35 2.45 783.35 L16.09
							 783.35 C17.55 788.54 15.58 789.28 6.92 789.28 L6.92 792 L17.92 792 L25.96 792 L36.34 792 L36.34 789.28
							 C27.69 789.28 26.84 788.54 28.31 783.35 L42.28 783.35 C43.63 783.35 45 782.15 45 780.81 L45 753.03 C45
							 751.69 43.63 750.48 42.28 750.48 ZM41.54 753.94 L41.54 779.89 L3.46 779.89 L3.46 753.94 L41.65 753.87
							 L41.54 753.94 Z" class="st10"/>
			</g>
			<g id="group24-76" transform="translate(14.3665,-16.6591)">
				<title>Sheet.24</title>
				<g id="group25-77" transform="translate(0.713875,-9.1607)">
					<title>Sheet.25</title>
					<g id="shape26-78">
						<title>Sheet.26</title>
						<path d="M13.96 787.87 L6.98 783.84 L0 787.87 L0 787.97 L6.98 792 L13.96 787.97 L13.96 787.87 Z"
								class="st10"/>
					</g>
				</g>
				<g id="group27-80" transform="translate(8.40713,1.13687E-13)">
					<title>Sheet.27</title>
					<g id="shape28-81">
						<title>Sheet.28</title>
						<path d="M0 784.04 L0 792 L6.98 787.97 L6.98 780.01 L0 784.04 Z" class="st10"/>
					</g>
				</g>
				<g id="group29-83">
					<title>Sheet.29</title>
					<g id="shape30-84">
						<title>Sheet.30</title>
						<path d="M6.98 784.04 L0 780.01 L0 787.97 L6.98 792 L6.98 784.04 Z" class="st10"/>
					</g>
				</g>
			</g>
			<g id="shape22-86">
				<text x="-5.48" y="807.68" class="st17">Ambari Server</text>			</g>
		</g>
		<g id="group31-88" transform="translate(319.5,-402.239)">
			<title>Virtual Machine symbol only.31</title>
			<desc>Master</desc>
			<g id="shape32-89">
				<title>Sheet.32</title>
				<path d="M42.28 750.48 L2.45 750.48 C1.08 750.48 0 751.69 0 753.03 L0 780.81 C0 782.15 1.08 783.35 2.45 783.35 L16.09
							 783.35 C17.55 788.54 15.58 789.28 6.92 789.28 L6.92 792 L17.92 792 L25.96 792 L36.34 792 L36.34 789.28
							 C27.69 789.28 26.84 788.54 28.31 783.35 L42.28 783.35 C43.63 783.35 45 782.15 45 780.81 L45 753.03 C45
							 751.69 43.63 750.48 42.28 750.48 ZM41.54 753.94 L41.54 779.89 L3.46 779.89 L3.46 753.94 L41.65 753.87
							 L41.54 753.94 Z" class="st10"/>
			</g>
			<g id="group33-91" transform="translate(14.3665,-16.6591)">
				<title>Sheet.33</title>
				<g id="group34-92" transform="translate(0.713875,-9.1607)">
					<title>Sheet.34</title>
					<g id="shape35-93">
						<title>Sheet.35</title>
						<path d="M13.96 787.87 L6.98 783.84 L0 787.87 L0 787.97 L6.98 792 L13.96 787.97 L13.96 787.87 Z"
								class="st10"/>
					</g>
				</g>
				<g id="group36-95" transform="translate(8.40713,1.13687E-13)">
					<title>Sheet.36</title>
					<g id="shape37-96">
						<title>Sheet.37</title>
						<path d="M0 784.04 L0 792 L6.98 787.97 L6.98 780.01 L0 784.04 Z" class="st10"/>
					</g>
				</g>
				<g id="group38-98">
					<title>Sheet.38</title>
					<g id="shape39-99">
						<title>Sheet.39</title>
						<path d="M6.98 784.04 L0 780.01 L0 787.97 L6.98 792 L6.98 784.04 Z" class="st10"/>
					</g>
				</g>
			</g>
			<g id="shape31-101">
				<text x="8.82" y="807.68" class="st17">Master</text>			</g>
		</g>
		<g id="group40-103" transform="translate(427.5,-402.239)">
			<title>Virtual Machine symbol only.40</title>
			<desc>Agent</desc>
			<g id="shape41-104">
				<title>Sheet.41</title>
				<path d="M42.28 750.48 L2.45 750.48 C1.08 750.48 0 751.69 0 753.03 L0 780.81 C0 782.15 1.08 783.35 2.45 783.35 L16.09
							 783.35 C17.55 788.54 15.58 789.28 6.92 789.28 L6.92 792 L17.92 792 L25.96 792 L36.34 792 L36.34 789.28
							 C27.69 789.28 26.84 788.54 28.31 783.35 L42.28 783.35 C43.63 783.35 45 782.15 45 780.81 L45 753.03 C45
							 751.69 43.63 750.48 42.28 750.48 ZM41.54 753.94 L41.54 779.89 L3.46 779.89 L3.46 753.94 L41.65 753.87
							 L41.54 753.94 Z" class="st10"/>
			</g>
			<g id="group42-106" transform="translate(14.3665,-16.6591)">
				<title>Sheet.42</title>
				<g id="group43-107" transform="translate(0.713875,-9.1607)">
					<title>Sheet.43</title>
					<g id="shape44-108">
						<title>Sheet.44</title>
						<path d="M13.96 787.87 L6.98 783.84 L0 787.87 L0 787.97 L6.98 792 L13.96 787.97 L13.96 787.87 Z"
								class="st10"/>
					</g>
				</g>
				<g id="group45-110" transform="translate(8.40713,1.13687E-13)">
					<title>Sheet.45</title>
					<g id="shape46-111">
						<title>Sheet.46</title>
						<path d="M0 784.04 L0 792 L6.98 787.97 L6.98 780.01 L0 784.04 Z" class="st10"/>
					</g>
				</g>
				<g id="group47-113">
					<title>Sheet.47</title>
					<g id="shape48-114">
						<title>Sheet.48</title>
						<path d="M6.98 784.04 L0 780.01 L0 787.97 L6.98 792 L6.98 784.04 Z" class="st10"/>
					</g>
				</g>
			</g>
			<g id="shape40-116">
				<text x="10.52" y="807.68" class="st17">Agent</text>			</g>
		</g>
		<g id="shape49-118" transform="translate(353.094,1302.27) scale(1,-1)">
			<title>Storage (Azure)</title>
			<desc>Azure Storage (staging &#38; persistence)</desc>
			<path d="M92.08 755.86 L84.98 755.86 L84.98 788.77 C84.98 790.49 83.47 792 81.75 792 L3.23 792 C1.51 792 0 790.49 0 788.77
						 L0 722.73 C-0 721 1.51 719.5 3.23 719.5 L47.76 719.5 L59.38 699.27 L91.86 699.27 L108 727.46 L92.08 755.86
						 ZM63.04 773.07 L78.74 773.07 L78.74 763.6 L63.04 763.6 L63.04 773.07 ZM78.74 760.59 L78.74 755.86 L63.04
						 755.86 L63.04 760.59 L78.74 760.59 ZM44.1 773.07 L59.81 773.07 L59.81 763.6 L44.1 763.6 L44.1 773.07 ZM44.1
						 760.59 L59.81 760.59 L59.81 755.86 L59.59 755.86 L56.8 751.12 L44.1 751.12 L44.1 760.59 ZM44.1 747.9 L54.86
						 747.9 L49.48 738.43 L44.1 738.43 L44.1 747.9 ZM47.76 735.42 L44.1 729.18 L44.1 735.42 L47.76 735.42 ZM22.16
						 725.95 L6.45 725.95 L6.45 735.42 L22.16 735.42 L22.16 725.95 ZM22.16 738.43 L6.45 738.43 L6.45 747.9 L22.16
						 747.9 L22.16 738.43 ZM22.16 751.12 L6.45 751.12 L6.45 760.59 L22.16 760.59 L22.16 751.12 ZM22.16 763.6 L6.45
						 763.6 L6.45 773.07 L22.16 773.07 L22.16 763.6 ZM41.09 725.95 L25.39 725.95 L25.39 735.42 L41.09 735.42 L41.09
						 725.95 ZM41.09 738.43 L25.39 738.43 L25.39 747.9 L41.09 747.9 L41.09 738.43 ZM41.09 751.12 L25.39 751.12
						 L25.39 760.59 L41.09 760.59 L41.09 751.12 ZM41.09 763.6 L25.39 763.6 L25.39 773.07 L41.09 773.07 L41.09
						 763.6 ZM44.1 725.95 L44.1 726.17 L44.1 725.95 Z" class="st10"/>
			<text x="-29.39" y="-684.29" transform="scale(1,-1)" class="st11">Azure Storage (staging &#38; persistence)</text>		</g>
		<g id="shape50-121" transform="translate(81,1302.27) scale(1,-1)">
			<title>Storage (Azure).50</title>
			<desc>Azure Blob Storage (backup)</desc>
			<path d="M92.08 755.86 L84.98 755.86 L84.98 788.77 C84.98 790.49 83.47 792 81.75 792 L3.23 792 C1.51 792 0 790.49 0 788.77
						 L0 722.73 C-0 721 1.51 719.5 3.23 719.5 L47.76 719.5 L59.38 699.27 L91.86 699.27 L108 727.46 L92.08 755.86
						 ZM63.04 773.07 L78.74 773.07 L78.74 763.6 L63.04 763.6 L63.04 773.07 ZM78.74 760.59 L78.74 755.86 L63.04
						 755.86 L63.04 760.59 L78.74 760.59 ZM44.1 773.07 L59.81 773.07 L59.81 763.6 L44.1 763.6 L44.1 773.07 ZM44.1
						 760.59 L59.81 760.59 L59.81 755.86 L59.59 755.86 L56.8 751.12 L44.1 751.12 L44.1 760.59 ZM44.1 747.9 L54.86
						 747.9 L49.48 738.43 L44.1 738.43 L44.1 747.9 ZM47.76 735.42 L44.1 729.18 L44.1 735.42 L47.76 735.42 ZM22.16
						 725.95 L6.45 725.95 L6.45 735.42 L22.16 735.42 L22.16 725.95 ZM22.16 738.43 L6.45 738.43 L6.45 747.9 L22.16
						 747.9 L22.16 738.43 ZM22.16 751.12 L6.45 751.12 L6.45 760.59 L22.16 760.59 L22.16 751.12 ZM22.16 763.6 L6.45
						 763.6 L6.45 773.07 L22.16 773.07 L22.16 763.6 ZM41.09 725.95 L25.39 725.95 L25.39 735.42 L41.09 735.42 L41.09
						 725.95 ZM41.09 738.43 L25.39 738.43 L25.39 747.9 L41.09 747.9 L41.09 738.43 ZM41.09 751.12 L25.39 751.12
						 L25.39 760.59 L41.09 760.59 L41.09 751.12 ZM41.09 763.6 L25.39 763.6 L25.39 773.07 L41.09 773.07 L41.09
						 763.6 ZM44.1 725.95 L44.1 726.17 L44.1 725.95 Z" class="st18"/>
			<text x="-8.91" y="-684.29" transform="scale(1,-1)" class="st19">Azure Blob Storage (backup)</text>		</g>
		<g id="group51-124" transform="translate(108.68,-666)">
			<title>Power BI (nc)</title>
			<g id="shape52-125" transform="translate(9.79116,-7.47497)">
				<title>Sheet.52</title>
				<path d="M6.74 788.63 C6.74 790.53 5.26 792 3.37 792 C1.47 792 0 790.53 0 788.63 L0 774 C0 772.1 1.47 770.63 3.37
							 770.63 C5.26 770.63 6.74 772.1 6.74 774 L6.74 788.63 Z" class="st20"/>
			</g>
			<g id="shape53-127" transform="translate(19.6876,-3.47428)">
				<title>Sheet.53</title>
				<path d="M6.74 788.63 C6.74 790.53 5.26 792 3.37 792 C1.47 792 0 790.53 0 788.63 L0 766.21 C0 764.31 1.47 762.84
							 3.37 762.84 C5.26 762.84 6.74 764.31 6.74 766.21 L6.74 788.63 Z" class="st20"/>
			</g>
			<g id="shape54-129" transform="translate(4.996E-15,-10.7387)">
				<title>Sheet.54</title>
				<path d="M6.74 788.63 C6.74 790.53 5.26 792 3.37 792 C1.47 792 0 790.53 0 788.63 L0 780.73 C0 778.84 1.47 777.37
							 3.37 777.37 C5.26 777.37 6.74 778.84 6.74 780.73 L6.74 788.63 Z" class="st20"/>
			</g>
			<g id="shape55-131" transform="translate(29.584,-2.27374E-13)">
				<title>Sheet.55</title>
				<path d="M6.74 788.63 C6.74 790.53 5.26 792 3.37 792 C1.47 792 0 790.53 0 788.63 L0 758.94 C0 757.05 1.47 755.57
							 3.37 755.57 C5.26 755.57 6.74 757.05 6.74 758.94 L6.74 788.63 Z" class="st20"/>
			</g>
			<g id="shape56-133" transform="translate(1.57922,-4.84294)">
				<title>Sheet.56</title>
				<path d="M45.48 792 C44.96 792 44.32 791.89 43.8 791.68 L39.59 790.32 C38.85 790.1 38.53 789.37 38.74 788.63 C38.95
							 787.89 39.69 787.58 40.43 787.79 L44.64 789.16 C45.48 789.47 46.43 789.26 47.17 788.74 C47.9 788.21
							 48.32 787.37 48.32 786.42 L48.32 759.15 C48.32 757.89 47.48 756.73 46.32 756.41 L6.42 744.31 C5.58 743.99
							 4.63 744.2 3.9 744.73 C3.16 745.26 2.74 746.1 2.74 747.04 L2.74 765.78 C2.74 766.52 2.11 767.15 1.37
							 767.15 C0.63 767.15 0 766.52 0 765.78 L0 747.04 C0 745.26 0.84 743.68 2.21 742.52 C3.68 741.46 5.47
							 741.15 7.16 741.68 L47.06 753.78 C49.38 754.52 51.06 756.63 51.06 759.15 L51.06 786.42 C51.06 788.21
							 50.22 789.89 48.75 790.95 C47.69 791.68 46.64 792 45.48 792 Z" class="st20"/>
			</g>
		</g>
		<g id="shape57-135" transform="translate(371.93,-666)">
			<title>Machine Learning (nc)</title>
			<path d="M33.05 781.21 A1.65494 1.65494 -180 1 0 29.74 781.21 A1.65494 1.65494 -180 1 0 33.05 781.21 ZM27.21 778.61 C29.07
						 778.61 30.58 777.1 30.58 775.24 C30.58 774.71 30.45 774.21 30.24 773.76 L38.09 773.76 L44.99 785.71 L7.65
						 785.71 L14.55 773.76 L24.18 773.76 C23.96 774.21 23.83 774.71 23.83 775.24 C23.83 777.1 25.34 778.61 27.21
						 778.61 ZM51.86 786.23 L35.14 757.27 L35.14 745.54 L35.44 745.54 C37.44 745.54 39.06 743.92 39.06 741.92
						 C39.06 739.92 37.44 738.3 35.44 738.3 L17.2 738.3 C15.2 738.3 13.58 739.92 13.58 741.92 C13.58 743.92 15.2
						 745.55 17.2 745.55 L17.5 745.55 L17.5 757.27 L0.78 786.23 C-1.05 789.4 0.45 792 4.12 792 L48.52 792 C52.19
						 792 53.69 789.4 51.86 786.23 Z" class="st10"/>
		</g>
		<g id="shape58-137" transform="translate(98.6289,-727)">
			<title>Sheet.58</title>
			<desc>Power BI</desc>
			<rect x="0" y="772" width="72.7422" height="20" class="st21"/>
			<text x="17.11" y="785" class="st22">Power BI</text>		</g>
		<g id="shape59-140" transform="translate(354.529,-727)">
			<title>Sheet.59</title>
			<desc>Apache Zeppelin Jupyter Notebook</desc>
			<rect x="0" y="772" width="87.4414" height="20" class="st21"/>
			<text x="6.68" y="779" class="st11">Apache Zeppelin <tspan x="4.07" dy="1.2em" class="st23">Jupyter Notebook</tspan></text>		</g>
		<g id="shape60-144" transform="translate(160.591,-511.159)">
			<title>Arrow (Azure Poster style)</title>
			<path d="M10.61 792 L10.97 792 L32.91 792 A27 27 0 0 1 59.91 819 L59.91 905.7 A24.75 24.75 -180 0 0 84.66 930.45 L98.44
						 930.45" class="st1"/>
		</g>
	</g>
</svg>
