<?xml version="1.0" encoding="UTF-8" standalone="no"?>
<svg width="250px" height="166px" viewBox="0 0 250 166" version="1.1" xmlns="http://www.w3.org/2000/svg" xmlns:xlink="http://www.w3.org/1999/xlink" xmlns:sketch="http://www.bohemiancoding.com/sketch/ns">
    <!-- Generator: Sketch 3.4.4 (17248) - http://www.bohemiancoding.com/sketch -->
    <title>Group</title>
    <desc>Created with Sketch.</desc>
    <defs></defs>
    <g id="Page-1" stroke="none" stroke-width="1" fill="none" fill-rule="evenodd" sketch:type="MSPage">
        <g id="Group" sketch:type="MSLayerGroup" transform="translate(-9.000000, -56.000000)" stroke="#000000">
            <path d="M191,141 L199.5,145.5" id="Line" stroke-width="2" stroke-linecap="square" sketch:type="MSShapeGroup"></path>
            <g id="Node-Group-1" transform="translate(59.000000, 66.000000)" sketch:type="MSShapeGroup">
                <circle id="Oval-1" cx="126" cy="72" r="6"></circle>
                <circle id="Oval-2" cx="71" cy="50" r="6"></circle>
                <circle id="Oval-3" cx="187" cy="62" r="6"></circle>
                <circle id="Oval-4" cx="126" cy="18" r="6"></circle>
                <circle id="Oval-5" cx="141" cy="115" r="6"></circle>
                <circle id="Oval-6" cx="105" cy="38" r="6"></circle>
                <circle id="Oval-7" cx="42" cy="68" r="6"></circle>
                <circle id="Oval-8" cx="153" cy="56" r="6"></circle>
                <circle id="Oval-9" cx="90" cy="6" r="6"></circle>
                <circle id="Oval-10" cx="83" cy="80" r="6"></circle>
                <circle id="Oval-13" cx="171" cy="84" r="6"></circle>
                <circle id="Oval-15" cx="99" cy="115" r="6"></circle>
                <circle id="Oval-16" cx="6" cy="131" r="6"></circle>
                <circle id="Oval-17" cx="67" cy="121" r="6"></circle>
                <circle id="Oval-18" cx="33" cy="115" r="6"></circle>
                <circle id="Oval-19" cx="51" cy="143" r="6"></circle>
            </g>
            <path d="M226,187 L229.5,178.5" id="Line" stroke-width="2" stroke-linecap="square" sketch:type="MSShapeGroup"></path>
            <path d="M206,184 L217,190" id="Line" stroke-width="2" stroke-linecap="square" sketch:type="MSShapeGroup"></path>
            <g id="Node-Group-2" transform="translate(138.102059, 134.724640) rotate(-320.000000) translate(-138.102059, -134.724640) translate(28.102059, 51.224640)" sketch:type="MSShapeGroup">
                <circle id="Oval-1" cx="132.97391" cy="107.645526" r="6"></circle>
                <circle id="Oval-2" cx="68.4288496" cy="64.9358222" r="6"></circle>
                <circle id="Oval-3" cx="213.098518" cy="73.7656307" r="6"></circle>
                <circle id="Oval-4" cx="130.596267" cy="32.1432743" r="6"></circle>
                <circle id="Oval-5" cx="158.672029" cy="133.836294" r="6"></circle>
                <circle id="Oval-6" cx="119.880868" cy="64.3999854" r="6"></circle>
                <circle id="Oval-7" cx="42" cy="86" r="6"></circle>
                <circle id="Oval-8" cx="158.908345" cy="79.4855679" r="6"></circle>
                <circle id="Oval-9" cx="90.8362944" cy="6.32797092" r="6"></circle>
                <circle id="Oval-10" cx="61.1014748" cy="96.7939351" r="6"></circle>
                <circle id="Oval-11" cx="205.427876" cy="51.6604444" r="6"></circle>
                <circle id="Oval-13" cx="178.563691" cy="104.791161" r="6"></circle>
                <circle id="Oval-14" cx="170.790187" cy="51.1609312" r="6"></circle>
                <circle id="Oval-15" cx="95.1432743" cy="128.403733" r="6"></circle>
                <circle id="Oval-16" cx="6" cy="149" r="6"></circle>
                <circle id="Oval-17" cx="67" cy="139" r="6"></circle>
                <circle id="Oval-18" cx="33" cy="133" r="6"></circle>
                <circle id="Oval-19" cx="51" cy="161" r="6"></circle>
            </g>
            <path d="M212.5,149 L223.5,149" id="Line" stroke-width="2" stroke-linecap="square" sketch:type="MSShapeGroup"></path>
            <path d="M230,157 L231,165" id="Line" stroke-width="2" stroke-linecap="square" sketch:type="MSShapeGroup"></path>
            <path d="M183,145 L180,156" id="Line" stroke-width="2" stroke-linecap="square" sketch:type="MSShapeGroup"></path>
            <path d="M131,192 L138.5,199.5" id="Line" stroke-width="2" stroke-linecap="square" sketch:type="MSShapeGroup"></path>
            <path d="M154,132 L146.5,140.5" id="Line" stroke-width="2" stroke-linecap="square" sketch:type="MSShapeGroup"></path>
            <path d="M141.5,153 L140.7,161" id="Line" stroke-width="2" stroke-linecap="square" sketch:type="MSShapeGroup"></path>
            <path d="M151,124 L136.5,118.5" id="Line" stroke-width="2" stroke-linecap="square" sketch:type="MSShapeGroup"></path>
            <path d="M160,120 L162.5,110.5" id="Line" stroke-width="2" stroke-linecap="square" sketch:type="MSShapeGroup"></path>
            <path d="M164,123 L181.5,112.5" id="Line" stroke-width="2" stroke-linecap="square" sketch:type="MSShapeGroup"></path>
            <path d="M164,129 L178.5,135.5" id="Line" stroke-width="2" stroke-linecap="square" sketch:type="MSShapeGroup"></path>
            <path d="M145.5,172.5 L152,177" id="Line" stroke-width="2" stroke-linecap="square" sketch:type="MSShapeGroup"></path>
            <path d="M163.5,185.5 L171.5,191.5" id="Line" stroke-width="2" stroke-linecap="square" sketch:type="MSShapeGroup"></path>
            <path d="M136.5,173.5 L130,181" id="Line" stroke-width="2" stroke-linecap="square" sketch:type="MSShapeGroup"></path>
            <path d="M122,193 L113.5,203.5" id="Line" stroke-width="2" stroke-linecap="square" sketch:type="MSShapeGroup"></path>
            <path d="M63,151 L50,154" id="Line" stroke-width="2" stroke-linecap="square" sketch:type="MSShapeGroup"></path>
            <path d="M23,119 L40.5,121.5" id="Line" stroke-width="2" stroke-linecap="square" sketch:type="MSShapeGroup"></path>
            <path d="M87,99 L90,107" id="Line" stroke-width="2" stroke-linecap="square" sketch:type="MSShapeGroup"></path>
            <path d="M95,120 L98.5,127.5" id="Line" stroke-width="2" stroke-linecap="square" sketch:type="MSShapeGroup"></path>
            <path d="M100,141 L98.5,152.5" id="Line" stroke-width="2" stroke-linecap="square" sketch:type="MSShapeGroup"></path>
            <path d="M96,166 L93.5,174.5" id="Line" stroke-width="2" stroke-linecap="square" sketch:type="MSShapeGroup"></path>
            <path d="M70.5,193.5 L86.5,184.5" id="Line" stroke-width="2" stroke-linecap="square" sketch:type="MSShapeGroup"></path>
            <path d="M52.5,127.5 L65.5,143.5" id="Line" stroke-width="2" stroke-linecap="square" sketch:type="MSShapeGroup"></path>
            <path d="M76,152 L91,157" id="Line" stroke-width="2" stroke-linecap="square" sketch:type="MSShapeGroup"></path>
            <path d="M121,100 L127,110" id="Line" stroke-width="2" stroke-linecap="square" sketch:type="MSShapeGroup"></path>
            <path d="M111.5,93 L91.5,93" id="Line" stroke-width="2" stroke-linecap="square" sketch:type="MSShapeGroup"></path>
            <path d="M187,102 L185.5,90.5" id="Line" stroke-width="2" stroke-linecap="square" sketch:type="MSShapeGroup"></path>
            <path d="M182,78 L176.5,69.5" id="Line" stroke-width="2" stroke-linecap="square" sketch:type="MSShapeGroup"></path>
            <path d="M166.5,65.5 L155.5,69.5" id="Line" stroke-width="2" stroke-linecap="square" sketch:type="MSShapeGroup"></path>
            <path d="M193,112 L206,119" id="Line" stroke-width="2" stroke-linecap="square" sketch:type="MSShapeGroup"></path>
            <path d="M234,144 L242.5,133.5" id="Line" stroke-width="2" stroke-linecap="square" sketch:type="MSShapeGroup"></path>
        </g>
    </g>
</svg>